<svg xmlns="http://www.w3.org/2000/svg" viewBox="0 0 96 60" shape-rendering="crispEdges"><rect x="0" y="0" width="96" height="1" fill="#ffffff"/><rect x="0" y="1" width="1" height="1" fill="#ffffff"/><rect x="48" y="1" width="1" height="1" fill="#ffffff"/><rect x="95" y="1" width="1" height="1" fill="#ffffff"/><rect x="0" y="2" width="1" height="1" fill="#ffffff"/><rect x="48" y="2" width="1" height="1" fill="#ffffff"/><rect x="95" y="2" width="1" height="1" fill="#ffffff"/><rect x="0" y="3" width="1" height="1" fill="#ffffff"/><rect x="48" y="3" width="1" height="1" fill="#ffffff"/><rect x="95" y="3" width="1" height="1" fill="#ffffff"/><rect x="0" y="4" width="1" height="1" fill="#ffffff"/><rect x="48" y="4" width="1" height="1" fill="#ffffff"/><rect x="95" y="4" width="1" height="1" fill="#ffffff"/><rect x="0" y="5" width="1" height="1" fill="#ffffff"/><rect x="48" y="5" width="1" height="1" fill="#ffffff"/><rect x="95" y="5" width="1" height="1" fill="#ffffff"/><rect x="0" y="6" width="1" height="1" fill="#ffffff"/><rect x="48" y="6" width="1" height="1" fill="#ffffff"/><rect x="95" y="6" width="1" height="1" fill="#ffffff"/><rect x="0" y="7" width="1" height="1" fill="#ffffff"/><rect x="48" y="7" width="1" height="1" fill="#ffffff"/><rect x="95" y="7" width="1" height="1" fill="#ffffff"/><rect x="0" y="8" width="1" height="1" fill="#ffffff"/><rect x="48" y="8" width="1" height="1" fill="#ffffff"/><rect x="95" y="8" width="1" height="1" fill="#ffffff"/><rect x="0" y="9" width="1" height="1" fill="#ffffff"/><rect x="48" y="9" width="1" height="1" fill="#ffffff"/><rect x="95" y="9" width="1" height="1" fill="#ffffff"/><rect x="0" y="10" width="1" height="1" fill="#ffffff"/><rect x="48" y="10" width="1" height="1" fill="#ffffff"/><rect x="95" y="10" width="1" height="1" fill="#ffffff"/><rect x="0" y="11" width="1" height="1" fill="#ffffff"/><rect x="48" y="11" width="1" height="1" fill="#ffffff"/><rect x="95" y="11" width="1" height="1" fill="#ffffff"/><rect x="0" y="12" width="1" height="1" fill="#ffffff"/><rect x="48" y="12" width="1" height="1" fill="#ffffff"/><rect x="95" y="12" width="1" height="1" fill="#ffffff"/><rect x="0" y="13" width="1" height="1" fill="#ffffff"/><rect x="48" y="13" width="1" height="1" fill="#ffffff"/><rect x="95" y="13" width="1" height="1" fill="#ffffff"/><rect x="0" y="14" width="1" height="1" fill="#ffffff"/><rect x="48" y="14" width="1" height="1" fill="#ffffff"/><rect x="95" y="14" width="1" height="1" fill="#ffffff"/><rect x="0" y="15" width="1" height="1" fill="#ffffff"/><rect x="48" y="15" width="1" height="1" fill="#ffffff"/><rect x="95" y="15" width="1" height="1" fill="#ffffff"/><rect x="0" y="16" width="15" height="1" fill="#ffffff"/><rect x="48" y="16" width="1" height="1" fill="#ffffff"/><rect x="81" y="16" width="15" height="1" fill="#ffffff"/><rect x="0" y="17" width="1" height="1" fill="#ffffff"/><rect x="14" y="17" width="1" height="1" fill="#ffffff"/><rect x="48" y="17" width="1" height="1" fill="#ffffff"/><rect x="81" y="17" width="1" height="1" fill="#ffffff"/><rect x="95" y="17" width="1" height="1" fill="#ffffff"/><rect x="0" y="18" width="1" height="1" fill="#ffffff"/><rect x="14" y="18" width="1" height="1" fill="#ffffff"/><rect x="48" y="18" width="1" height="1" fill="#ffffff"/><rect x="81" y="18" width="1" height="1" fill="#ffffff"/><rect x="95" y="18" width="1" height="1" fill="#ffffff"/><rect x="0" y="19" width="1" height="1" fill="#ffffff"/><rect x="14" y="19" width="1" height="1" fill="#ffffff"/><rect x="48" y="19" width="1" height="1" fill="#ffffff"/><rect x="81" y="19" width="1" height="1" fill="#ffffff"/><rect x="95" y="19" width="1" height="1" fill="#ffffff"/><rect x="0" y="20" width="1" height="1" fill="#ffffff"/><rect x="14" y="20" width="1" height="1" fill="#ffffff"/><rect x="48" y="20" width="1" height="1" fill="#ffffff"/><rect x="81" y="20" width="1" height="1" fill="#ffffff"/><rect x="95" y="20" width="1" height="1" fill="#ffffff"/><rect x="0" y="21" width="1" height="1" fill="#ffffff"/><rect x="14" y="21" width="1" height="1" fill="#ffffff"/><rect x="45" y="21" width="7" height="1" fill="#ffffff"/><rect x="81" y="21" width="1" height="1" fill="#ffffff"/><rect x="95" y="21" width="1" height="1" fill="#ffffff"/><rect x="0" y="22" width="1" height="1" fill="#ffffff"/><rect x="14" y="22" width="1" height="1" fill="#ffffff"/><rect x="43" y="22" width="3" height="1" fill="#ffffff"/><rect x="48" y="22" width="1" height="1" fill="#ffffff"/><rect x="51" y="22" width="3" height="1" fill="#ffffff"/><rect x="81" y="22" width="1" height="1" fill="#ffffff"/><rect x="95" y="22" width="1" height="1" fill="#ffffff"/><rect x="0" y="23" width="1" height="1" fill="#ffffff"/><rect x="14" y="23" width="1" height="1" fill="#ffffff"/><rect x="42" y="23" width="2" height="1" fill="#ffffff"/><rect x="48" y="23" width="1" height="1" fill="#ffffff"/><rect x="53" y="23" width="2" height="1" fill="#ffffff"/><rect x="81" y="23" width="1" height="1" fill="#ffffff"/><rect x="95" y="23" width="1" height="1" fill="#ffffff"/><rect x="0" y="24" width="6" height="1" fill="#ffffff"/><rect x="14" y="24" width="1" height="1" fill="#ffffff"/><rect x="41" y="24" width="2" height="1" fill="#ffffff"/><rect x="48" y="24" width="1" height="1" fill="#ffffff"/><rect x="54" y="24" width="2" height="1" fill="#ffffff"/><rect x="81" y="24" width="1" height="1" fill="#ffffff"/><rect x="90" y="24" width="6" height="1" fill="#ffffff"/><rect x="0" y="25" width="1" height="1" fill="#ffffff"/><rect x="5" y="25" width="1" height="1" fill="#ffffff"/><rect x="14" y="25" width="1" height="1" fill="#ffffff"/><rect x="40" y="25" width="2" height="1" fill="#ffffff"/><rect x="48" y="25" width="1" height="1" fill="#ffffff"/><rect x="55" y="25" width="2" height="1" fill="#ffffff"/><rect x="81" y="25" width="1" height="1" fill="#ffffff"/><rect x="90" y="25" width="1" height="1" fill="#ffffff"/><rect x="95" y="25" width="1" height="1" fill="#ffffff"/><rect x="0" y="26" width="1" height="1" fill="#ffffff"/><rect x="5" y="26" width="1" height="1" fill="#ffffff"/><rect x="14" y="26" width="1" height="1" fill="#ffffff"/><rect x="40" y="26" width="1" height="1" fill="#ffffff"/><rect x="48" y="26" width="1" height="1" fill="#ffffff"/><rect x="56" y="26" width="1" height="1" fill="#ffffff"/><rect x="81" y="26" width="1" height="1" fill="#ffffff"/><rect x="90" y="26" width="1" height="1" fill="#ffffff"/><rect x="95" y="26" width="1" height="1" fill="#ffffff"/><rect x="0" y="27" width="1" height="1" fill="#ffffff"/><rect x="5" y="27" width="1" height="1" fill="#ffffff"/><rect x="14" y="27" width="1" height="1" fill="#ffffff"/><rect x="39" y="27" width="2" height="1" fill="#ffffff"/><rect x="48" y="27" width="1" height="1" fill="#ffffff"/><rect x="56" y="27" width="2" height="1" fill="#ffffff"/><rect x="81" y="27" width="1" height="1" fill="#ffffff"/><rect x="90" y="27" width="1" height="1" fill="#ffffff"/><rect x="95" y="27" width="1" height="1" fill="#ffffff"/><rect x="0" y="28" width="1" height="1" fill="#ffffff"/><rect x="5" y="28" width="1" height="1" fill="#ffffff"/><rect x="14" y="28" width="1" height="1" fill="#ffffff"/><rect x="39" y="28" width="1" height="1" fill="#ffffff"/><rect x="48" y="28" width="1" height="1" fill="#ffffff"/><rect x="57" y="28" width="1" height="1" fill="#ffffff"/><rect x="81" y="28" width="1" height="1" fill="#ffffff"/><rect x="90" y="28" width="1" height="1" fill="#ffffff"/><rect x="95" y="28" width="1" height="1" fill="#ffffff"/><rect x="0" y="29" width="1" height="1" fill="#ffffff"/><rect x="5" y="29" width="1" height="1" fill="#ffffff"/><rect x="14" y="29" width="1" height="1" fill="#ffffff"/><rect x="39" y="29" width="1" height="1" fill="#ffffff"/><rect x="48" y="29" width="1" height="1" fill="#ffffff"/><rect x="57" y="29" width="1" height="1" fill="#ffffff"/><rect x="81" y="29" width="1" height="1" fill="#ffffff"/><rect x="90" y="29" width="1" height="1" fill="#ffffff"/><rect x="95" y="29" width="1" height="1" fill="#ffffff"/><rect x="0" y="30" width="1" height="1" fill="#ffffff"/><rect x="5" y="30" width="1" height="1" fill="#ffffff"/><rect x="10" y="30" width="1" height="1" fill="#ffffff"/><rect x="14" y="30" width="1" height="1" fill="#ffffff"/><rect x="39" y="30" width="1" height="1" fill="#ffffff"/><rect x="47" y="30" width="3" height="1" fill="#ffffff"/><rect x="57" y="30" width="1" height="1" fill="#ffffff"/><rect x="81" y="30" width="1" height="1" fill="#ffffff"/><rect x="85" y="30" width="1" height="1" fill="#ffffff"/><rect x="90" y="30" width="1" height="1" fill="#ffffff"/><rect x="95" y="30" width="1" height="1" fill="#ffffff"/><rect x="0" y="31" width="1" height="1" fill="#ffffff"/><rect x="5" y="31" width="1" height="1" fill="#ffffff"/><rect x="14" y="31" width="1" height="1" fill="#ffffff"/><rect x="39" y="31" width="1" height="1" fill="#ffffff"/><rect x="48" y="31" width="1" height="1" fill="#ffffff"/><rect x="57" y="31" width="1" height="1" fill="#ffffff"/><rect x="81" y="31" width="1" height="1" fill="#ffffff"/><rect x="90" y="31" width="1" height="1" fill="#ffffff"/><rect x="95" y="31" width="1" height="1" fill="#ffffff"/><rect x="0" y="32" width="1" height="1" fill="#ffffff"/><rect x="5" y="32" width="1" height="1" fill="#ffffff"/><rect x="14" y="32" width="1" height="1" fill="#ffffff"/><rect x="39" y="32" width="1" height="1" fill="#ffffff"/><rect x="48" y="32" width="1" height="1" fill="#ffffff"/><rect x="57" y="32" width="1" height="1" fill="#ffffff"/><rect x="81" y="32" width="1" height="1" fill="#ffffff"/><rect x="90" y="32" width="1" height="1" fill="#ffffff"/><rect x="95" y="32" width="1" height="1" fill="#ffffff"/><rect x="0" y="33" width="1" height="1" fill="#ffffff"/><rect x="5" y="33" width="1" height="1" fill="#ffffff"/><rect x="14" y="33" width="1" height="1" fill="#ffffff"/><rect x="39" y="33" width="2" height="1" fill="#ffffff"/><rect x="48" y="33" width="1" height="1" fill="#ffffff"/><rect x="56" y="33" width="2" height="1" fill="#ffffff"/><rect x="81" y="33" width="1" height="1" fill="#ffffff"/><rect x="90" y="33" width="1" height="1" fill="#ffffff"/><rect x="95" y="33" width="1" height="1" fill="#ffffff"/><rect x="0" y="34" width="1" height="1" fill="#ffffff"/><rect x="5" y="34" width="1" height="1" fill="#ffffff"/><rect x="14" y="34" width="1" height="1" fill="#ffffff"/><rect x="40" y="34" width="1" height="1" fill="#ffffff"/><rect x="48" y="34" width="1" height="1" fill="#ffffff"/><rect x="56" y="34" width="1" height="1" fill="#ffffff"/><rect x="81" y="34" width="1" height="1" fill="#ffffff"/><rect x="90" y="34" width="1" height="1" fill="#ffffff"/><rect x="95" y="34" width="1" height="1" fill="#ffffff"/><rect x="0" y="35" width="6" height="1" fill="#ffffff"/><rect x="14" y="35" width="1" height="1" fill="#ffffff"/><rect x="40" y="35" width="2" height="1" fill="#ffffff"/><rect x="48" y="35" width="1" height="1" fill="#ffffff"/><rect x="55" y="35" width="2" height="1" fill="#ffffff"/><rect x="81" y="35" width="1" height="1" fill="#ffffff"/><rect x="90" y="35" width="6" height="1" fill="#ffffff"/><rect x="0" y="36" width="1" height="1" fill="#ffffff"/><rect x="14" y="36" width="1" height="1" fill="#ffffff"/><rect x="41" y="36" width="2" height="1" fill="#ffffff"/><rect x="48" y="36" width="1" height="1" fill="#ffffff"/><rect x="54" y="36" width="2" height="1" fill="#ffffff"/><rect x="81" y="36" width="1" height="1" fill="#ffffff"/><rect x="95" y="36" width="1" height="1" fill="#ffffff"/><rect x="0" y="37" width="1" height="1" fill="#ffffff"/><rect x="14" y="37" width="1" height="1" fill="#ffffff"/><rect x="42" y="37" width="2" height="1" fill="#ffffff"/><rect x="48" y="37" width="1" height="1" fill="#ffffff"/><rect x="53" y="37" width="2" height="1" fill="#ffffff"/><rect x="81" y="37" width="1" height="1" fill="#ffffff"/><rect x="95" y="37" width="1" height="1" fill="#ffffff"/><rect x="0" y="38" width="1" height="1" fill="#ffffff"/><rect x="14" y="38" width="1" height="1" fill="#ffffff"/><rect x="43" y="38" width="3" height="1" fill="#ffffff"/><rect x="48" y="38" width="1" height="1" fill="#ffffff"/><rect x="51" y="38" width="3" height="1" fill="#ffffff"/><rect x="81" y="38" width="1" height="1" fill="#ffffff"/><rect x="95" y="38" width="1" height="1" fill="#ffffff"/><rect x="0" y="39" width="1" height="1" fill="#ffffff"/><rect x="14" y="39" width="1" height="1" fill="#ffffff"/><rect x="45" y="39" width="7" height="1" fill="#ffffff"/><rect x="81" y="39" width="1" height="1" fill="#ffffff"/><rect x="95" y="39" width="1" height="1" fill="#ffffff"/><rect x="0" y="40" width="1" height="1" fill="#ffffff"/><rect x="14" y="40" width="1" height="1" fill="#ffffff"/><rect x="48" y="40" width="1" height="1" fill="#ffffff"/><rect x="81" y="40" width="1" height="1" fill="#ffffff"/><rect x="95" y="40" width="1" height="1" fill="#ffffff"/><rect x="0" y="41" width="1" height="1" fill="#ffffff"/><rect x="14" y="41" width="1" height="1" fill="#ffffff"/><rect x="48" y="41" width="1" height="1" fill="#ffffff"/><rect x="81" y="41" width="1" height="1" fill="#ffffff"/><rect x="95" y="41" width="1" height="1" fill="#ffffff"/><rect x="0" y="42" width="1" height="1" fill="#ffffff"/><rect x="14" y="42" width="1" height="1" fill="#ffffff"/><rect x="48" y="42" width="1" height="1" fill="#ffffff"/><rect x="81" y="42" width="1" height="1" fill="#ffffff"/><rect x="95" y="42" width="1" height="1" fill="#ffffff"/><rect x="0" y="43" width="15" height="1" fill="#ffffff"/><rect x="48" y="43" width="1" height="1" fill="#ffffff"/><rect x="81" y="43" width="15" height="1" fill="#ffffff"/><rect x="0" y="44" width="1" height="1" fill="#ffffff"/><rect x="48" y="44" width="1" height="1" fill="#ffffff"/><rect x="95" y="44" width="1" height="1" fill="#ffffff"/><rect x="0" y="45" width="1" height="1" fill="#ffffff"/><rect x="48" y="45" width="1" height="1" fill="#ffffff"/><rect x="95" y="45" width="1" height="1" fill="#ffffff"/><rect x="0" y="46" width="1" height="1" fill="#ffffff"/><rect x="48" y="46" width="1" height="1" fill="#ffffff"/><rect x="95" y="46" width="1" height="1" fill="#ffffff"/><rect x="0" y="47" width="1" height="1" fill="#ffffff"/><rect x="48" y="47" width="1" height="1" fill="#ffffff"/><rect x="95" y="47" width="1" height="1" fill="#ffffff"/><rect x="0" y="48" width="1" height="1" fill="#ffffff"/><rect x="48" y="48" width="1" height="1" fill="#ffffff"/><rect x="95" y="48" width="1" height="1" fill="#ffffff"/><rect x="0" y="49" width="1" height="1" fill="#ffffff"/><rect x="48" y="49" width="1" height="1" fill="#ffffff"/><rect x="95" y="49" width="1" height="1" fill="#ffffff"/><rect x="0" y="50" width="1" height="1" fill="#ffffff"/><rect x="48" y="50" width="1" height="1" fill="#ffffff"/><rect x="95" y="50" width="1" height="1" fill="#ffffff"/><rect x="0" y="51" width="1" height="1" fill="#ffffff"/><rect x="48" y="51" width="1" height="1" fill="#ffffff"/><rect x="95" y="51" width="1" height="1" fill="#ffffff"/><rect x="0" y="52" width="1" height="1" fill="#ffffff"/><rect x="48" y="52" width="1" height="1" fill="#ffffff"/><rect x="95" y="52" width="1" height="1" fill="#ffffff"/><rect x="0" y="53" width="1" height="1" fill="#ffffff"/><rect x="48" y="53" width="1" height="1" fill="#ffffff"/><rect x="95" y="53" width="1" height="1" fill="#ffffff"/><rect x="0" y="54" width="1" height="1" fill="#ffffff"/><rect x="48" y="54" width="1" height="1" fill="#ffffff"/><rect x="95" y="54" width="1" height="1" fill="#ffffff"/><rect x="0" y="55" width="1" height="1" fill="#ffffff"/><rect x="48" y="55" width="1" height="1" fill="#ffffff"/><rect x="95" y="55" width="1" height="1" fill="#ffffff"/><rect x="0" y="56" width="1" height="1" fill="#ffffff"/><rect x="48" y="56" width="1" height="1" fill="#ffffff"/><rect x="95" y="56" width="1" height="1" fill="#ffffff"/><rect x="0" y="57" width="1" height="1" fill="#ffffff"/><rect x="48" y="57" width="1" height="1" fill="#ffffff"/><rect x="95" y="57" width="1" height="1" fill="#ffffff"/><rect x="0" y="58" width="1" height="1" fill="#ffffff"/><rect x="48" y="58" width="1" height="1" fill="#ffffff"/><rect x="95" y="58" width="1" height="1" fill="#ffffff"/><rect x="0" y="59" width="96" height="1" fill="#ffffff"/></svg>